<svg id="Calque_1" data-name="Calque 1" xmlns="http://www.w3.org/2000/svg" xmlns:xlink="http://www.w3.org/1999/xlink" viewBox="0 0 30.98 30.98"><defs><style>.cls-1{fill:none;}.cls-2{clip-path:url(#clip-path);}.cls-3{fill:#fff;}.cls-4{fill:red;}.cls-5{clip-path:url(#clip-path-2);}.cls-6{fill:navy;fill-rule:evenodd;}</style><clipPath id="clip-path"><rect class="cls-1" width="30.98" height="30.98"/></clipPath><clipPath id="clip-path-2"><rect class="cls-1" width="30.5" height="30.98"/></clipPath></defs><g class="cls-2"><path class="cls-3" d="M15.49,0c-.36,0-.73,0-1.09,0a15.42,15.42,0,0,0-1.54.18c-.51.09-1,.21-1.51.34a14.9,14.9,0,0,0-1.47.49c-.48.19-1,.4-1.42.63s-.9.5-1.34.77-.85.59-1.26.9-.79.67-1.16,1A14.16,14.16,0,0,0,3.64,5.51c-.33.4-.65.81-.94,1.23a15,15,0,0,0-.8,1.32,15,15,0,0,0-.68,1.4,14.77,14.77,0,0,0-.53,1.45c-.15.5-.28,1-.38,1.5a13.46,13.46,0,0,0-.23,1.53C0,14.46,0,15,0,15.49s0,.73,0,1.1.1,1,.18,1.54.21,1,.34,1.51a13.89,13.89,0,0,0,.49,1.46c.19.49.4,1,.63,1.42s.5.91.77,1.34.59.86.9,1.26.67.8,1,1.17a14,14,0,0,0,1.13,1.05c.4.33.81.64,1.23.94s.87.56,1.32.81.92.47,1.4.67a14.77,14.77,0,0,0,1.45.53q.75.23,1.5.39c.51.1,1,.17,1.53.23s1,.07,1.55.07c.36,0,.73,0,1.1,0s1-.1,1.54-.18,1-.2,1.51-.34a13.89,13.89,0,0,0,1.46-.49c.49-.19,1-.4,1.42-.63s.91-.49,1.34-.77a15.3,15.3,0,0,0,2.43-1.93c.37-.36.72-.74,1.05-1.13s.64-.8.94-1.23.56-.87.81-1.32.47-.92.67-1.39.38-1,.53-1.46.28-1,.39-1.5.17-1,.23-1.53S31,16,31,15.49c0-.36,0-.73,0-1.09,0-.52-.1-1-.18-1.54a15.45,15.45,0,0,0-.83-3c-.19-.48-.4-1-.63-1.42s-.49-.9-.77-1.34-.58-.85-.9-1.26-.67-.79-1-1.16S25.86,4,25.47,3.64a14.26,14.26,0,0,0-1.23-.94c-.43-.29-.87-.55-1.32-.8s-.92-.48-1.39-.68-1-.38-1.46-.53-1-.28-1.5-.38A13.46,13.46,0,0,0,17,.08C16.53,0,16,0,15.49,0Z"/><path class="cls-4" d="M15.49,0c-.36,0-.73,0-1.09,0s-.62.06-.93.11V12.41H.31a13.46,13.46,0,0,0-.23,1.53C0,14.46,0,15,0,15.49s0,.73,0,1.1.1,1,.18,1.54l.15.63h13.1V30.83l.47.08c.52.05,1,.07,1.55.07s.73,0,1.1,0,.6-.06.89-.1V18.76H30.63a1.8,1.8,0,0,1,.05-.19c.1-.51.17-1,.23-1.53S31,16,31,15.49c0-.36,0-.73,0-1.09,0-.52-.1-1-.18-1.54,0-.15-.07-.3-.1-.45H17.48V.15L17,.08C16.53,0,16,0,15.49,0Zm10,3.69-6.65,6.52h2.35L26.78,4.9l-.18-.2A12.9,12.9,0,0,0,25.52,3.69ZM4.26,4.85l-.62.66-.56.73,4.16,4H9.87ZM12.08,21H9.63l-5.4,5.16.15.18a12.53,12.53,0,0,0,1.13,1.05Zm9,0,5.53,5.28c.25-.24.48-.5.71-.76s.32-.41.47-.62L23.73,21Z"/></g><g class="cls-5"><path class="cls-6" d="M18.86.39V8.85l6-5.68c-.2-.16-.4-.32-.61-.47-.43-.29-.87-.55-1.32-.8s-.92-.48-1.39-.68-1-.38-1.46-.53S19.27.47,18.86.39ZM12.07.4l-.72.16a14.9,14.9,0,0,0-1.47.49c-.48.19-1,.4-1.42.63s-.9.5-1.34.77-.69.48-1,.73l6,5.67ZM28.29,6.79,24.7,10.21H30l-.11-.33c-.19-.48-.4-1-.63-1.42s-.49-.9-.77-1.34Zm-25.63,0c-.27.4-.53.82-.76,1.24a15,15,0,0,0-.68,1.4c-.09.25-.19.5-.27.75H6.21ZM1,20.92l.06.18c.19.49.4,1,.63,1.42s.5.91.77,1.34l.28.38,3.48-3.32Zm23.71,0,3.53,3.38.05-.06q.43-.64.81-1.32c.24-.46.47-.92.67-1.39.08-.21.15-.4.22-.61ZM12.07,22.2,6.15,27.83l.59.45q.64.43,1.32.81c.46.24.92.47,1.4.67a14.77,14.77,0,0,0,1.45.53c.39.12.77.22,1.16.3Zm6.79,0v8.39l.78-.17a13.89,13.89,0,0,0,1.46-.49c.49-.19,1-.4,1.42-.63s.91-.49,1.34-.77.65-.44.95-.68Z"/></g></svg>